<svg width="26" height="24" viewBox="0 0 26 24" fill="none" xmlns="http://www.w3.org/2000/svg">
<path d="M6.32784 14.4472L5.45759 17.3817L2.27686 17.4425C1.32629 15.8499 0.787109 14.0278 0.787109 12.0915C0.787109 10.2191 1.29123 8.45341 2.18482 6.89868H2.1855L5.01724 7.36763L6.25772 9.91014C5.99809 10.5938 5.85658 11.3278 5.85658 12.0915C5.85668 12.9204 6.0229 13.7145 6.32784 14.4472V14.4472Z" fill="#FBBB00"/>
<path d="M25.5687 9.98218C25.7123 10.6652 25.7872 11.3706 25.7872 12.0916C25.7872 12.9 25.6931 13.6885 25.5138 14.4491C24.9053 17.0375 23.3152 19.2976 21.1126 20.897L21.1119 20.8964L17.5452 20.732L17.0404 17.8856C18.5019 17.1113 19.6442 15.8996 20.2458 14.4491H13.5615V9.98218H25.5687Z" fill="#518EF8"/>
<path d="M21.1132 20.8964L21.1139 20.897C18.9717 22.4524 16.2504 23.383 13.288 23.383C8.52757 23.383 4.3887 20.9795 2.27734 17.4426L6.32832 14.4473C7.38397 16.9922 10.1018 18.8038 13.288 18.8038C14.6576 18.8038 15.9406 18.4694 17.0416 17.8856L21.1132 20.8964Z" fill="#28B446"/>
<path d="M21.2663 3.39955L17.2167 6.39425C16.0773 5.7509 14.7303 5.37925 13.2873 5.37925C10.0289 5.37925 7.26029 7.27396 6.25752 9.91012L2.18525 6.89866H2.18457C4.26502 3.27547 8.45609 0.800049 13.2873 0.800049C16.3204 0.800049 19.1014 1.77596 21.2663 3.39955Z" fill="#F14336"/>
</svg>
